<svg width="16" height="16" viewBox="0 0 16 16" fill="none" xmlns="http://www.w3.org/2000/svg">
<g clip-path="url(#clip0_463_6098)">
<path d="M8 16C10.1217 16 12.1566 15.1571 13.6569 13.6569C15.1571 12.1566 16 10.1217 16 8C16 5.87827 15.1571 3.84344 13.6569 2.34315C12.1566 0.842855 10.1217 0 8 0C5.87827 0 3.84344 0.842855 2.34315 2.34315C0.842855 3.84344 0 5.87827 0 8C0 10.1217 0.842855 12.1566 2.34315 13.6569C3.84344 15.1571 5.87827 16 8 16ZM9.58438 10.1594L5.075 11.8938C4.46875 12.1281 3.87187 11.5312 4.10625 10.925L5.84062 6.41563C5.94375 6.15 6.15 5.94375 6.41563 5.84062L10.925 4.10625C11.5312 3.87187 12.1281 4.46875 11.8938 5.075L10.1594 9.58438C10.0594 9.85 9.85 10.0563 9.58438 10.1594ZM9 8C9 7.73478 8.89464 7.48043 8.70711 7.29289C8.51957 7.10536 8.26522 7 8 7C7.73478 7 7.48043 7.10536 7.29289 7.29289C7.10536 7.48043 7 7.73478 7 8C7 8.26522 7.10536 8.51957 7.29289 8.70711C7.48043 8.89464 7.73478 9 8 9C8.26522 9 8.51957 8.89464 8.70711 8.70711C8.89464 8.51957 9 8.26522 9 8Z" fill="#FC921C"/>
</g>
<defs>
<clipPath id="clip0_463_6098">
<path d="M0 0H16V16H0V0Z" fill="white"/>
</clipPath>
</defs>
</svg>
