<svg width="145" height="49" viewBox="0 0 145 49" fill="none" xmlns="http://www.w3.org/2000/svg">
<g clip-path="url(#clip0_1301_67)">
<path d="M133.106 0.000157113H11.5243C11.0811 0.000157113 10.6432 0.000157113 10.2012 0.00257424C9.8312 0.00499137 9.46415 0.0120131 9.09059 0.017923C8.27906 0.0274729 7.46943 0.0988682 6.66875 0.231488C5.86919 0.366996 5.09468 0.622466 4.37141 0.989258C3.64903 1.35915 2.98897 1.83979 2.41517 2.41375C1.83836 2.98608 1.35755 3.64762 0.991214 4.37294C0.623871 5.09681 0.369154 5.8725 0.235861 6.67322C0.101301 7.47294 0.0288925 8.28187 0.0192863 9.09277C0.00807084 9.46332 0.00688644 9.83509 0.000976562 10.2057V38.1408C0.00688644 38.516 0.00807084 38.8796 0.0192863 39.2549C0.0288954 40.0658 0.101304 40.8747 0.235861 41.6744C0.368786 42.4756 0.623518 43.2517 0.991214 43.9758C1.35738 44.6988 1.83826 45.3577 2.41517 45.9268C2.98679 46.5033 3.64728 46.9843 4.37141 47.3514C5.09468 47.7191 5.8691 47.9761 6.66875 48.1137C7.46957 48.2453 8.27911 48.3167 9.09059 48.3274C9.46415 48.3356 9.8312 48.3403 10.2012 48.3403C10.6432 48.3427 11.0811 48.3427 11.5243 48.3427H133.106C133.54 48.3427 133.982 48.3427 134.416 48.3403C134.784 48.3403 135.162 48.3356 135.53 48.3274C136.34 48.3173 137.148 48.2458 137.947 48.1137C138.75 47.9752 139.527 47.7182 140.254 47.3514C140.977 46.9841 141.637 46.5031 142.208 45.9268C142.783 45.3554 143.265 44.6971 143.636 43.9758C144.001 43.2512 144.253 42.4751 144.384 41.6744C144.519 40.8746 144.594 40.0659 144.609 39.2549C144.613 38.8796 144.613 38.516 144.613 38.1408C144.623 37.7017 144.623 37.265 144.623 36.8188V11.5252C144.623 11.0826 144.623 10.6435 144.613 10.2057C144.613 9.83509 144.613 9.46332 144.609 9.09272C144.594 8.28175 144.519 7.473 144.384 6.67317C144.253 5.87291 144.001 5.09728 143.636 4.37289C142.89 2.91908 141.707 1.73569 140.254 0.98915C139.527 0.623254 138.75 0.367851 137.947 0.23138C137.148 0.0981751 136.34 0.0267549 135.53 0.0177538C135.162 0.011856 134.784 0.00477383 134.416 0.00241713C133.982 0 133.54 0 133.106 0V0.000157113Z" fill="#A6A6A6"/>
<path d="M10.2072 47.2852C9.83896 47.2852 9.47963 47.2805 9.1143 47.2723C8.35747 47.2624 7.60241 47.1965 6.85532 47.0752C6.15869 46.9552 5.48384 46.732 4.85304 46.413C4.22802 46.0966 3.65795 45.6818 3.16468 45.1844C2.66426 44.6928 2.24764 44.1227 1.93132 43.4966C1.61152 42.8665 1.3902 42.191 1.27507 41.4938C1.15074 40.7446 1.08347 39.9871 1.07385 39.2277C1.06618 38.9728 1.05615 38.1242 1.05615 38.1242V10.2057C1.05615 10.2057 1.06684 9.37004 1.07391 9.12455C1.08312 8.36639 1.15 7.61004 1.27396 6.86203C1.3893 6.1629 1.6108 5.48549 1.93077 4.85327C2.24592 4.22761 2.66023 3.65707 3.15763 3.16376C3.65447 2.66576 4.22637 2.24878 4.85245 1.92804C5.4818 1.61004 6.15537 1.38844 6.85059 1.27065C7.60014 1.14806 8.35782 1.08178 9.11727 1.07237L10.2078 1.05762H134.41L135.514 1.07297C136.266 1.08191 137.017 1.14759 137.76 1.26947C138.462 1.38873 139.143 1.61188 139.779 1.93158C141.033 2.57797 142.054 3.60063 142.698 4.85622C143.013 5.48408 143.231 6.15596 143.345 6.84905C143.47 7.60319 143.54 8.36549 143.555 9.12986C143.558 9.47213 143.558 9.83977 143.558 10.2057C143.568 10.6589 143.568 11.0902 143.568 11.5252V36.8188C143.568 37.2579 143.568 37.6863 143.558 38.1183C143.558 38.5113 143.558 38.8713 143.554 39.2419C143.539 39.9926 143.47 40.7413 143.347 41.4819C143.234 42.1842 143.014 42.8649 142.694 43.5002C142.376 44.1195 141.962 44.6847 141.467 45.1749C140.973 45.675 140.402 46.0923 139.776 46.4107C139.141 46.7322 138.461 46.9562 137.76 47.0752C137.013 47.1972 136.258 47.2631 135.501 47.2723C135.147 47.2805 134.776 47.2852 134.416 47.2852L133.106 47.2876L10.2072 47.2852Z" fill="#111827"/>
<path d="M29.936 24.5351C29.949 23.5264 30.2169 22.5373 30.7149 21.6599C31.2129 20.7826 31.9247 20.0454 32.7841 19.5171C32.2381 18.7373 31.5179 18.0957 30.6805 17.643C29.8432 17.1903 28.9119 16.9391 27.9605 16.9094C25.931 16.6963 23.9635 18.1238 22.9293 18.1238C21.8752 18.1238 20.2829 16.9305 18.5682 16.9658C17.4592 17.0016 16.3783 17.3241 15.4309 17.9019C14.4836 18.4797 13.702 19.293 13.1624 20.2626C10.8251 24.3094 12.5685 30.2568 14.8075 33.5279C15.9277 35.1297 17.237 36.9189 18.95 36.8555C20.6264 36.7859 21.2525 35.7865 23.276 35.7865C25.2807 35.7865 25.8681 36.8555 27.6159 36.8151C29.4147 36.7859 30.5481 35.2062 31.629 33.5893C32.4339 32.448 33.0532 31.1866 33.4641 29.8518C32.419 29.4098 31.5272 28.6699 30.8998 27.7245C30.2724 26.779 29.9372 25.6698 29.936 24.5351Z" fill="white"/>
<path d="M26.6349 14.7577C27.6156 13.5803 28.0988 12.067 27.9818 10.5391C26.4834 10.6964 25.0993 11.4126 24.1053 12.5448C23.6192 13.0979 23.247 13.7414 23.0098 14.4385C22.7727 15.1355 22.6752 15.8725 22.723 16.6073C23.4725 16.615 24.2139 16.4525 24.8915 16.1322C25.5691 15.8118 26.1652 15.3418 26.6349 14.7577Z" fill="white"/>
<path d="M51.1261 32.8001H45.4055L44.0317 36.8566H41.6086L47.0271 21.8486H49.5446L54.963 36.8566H52.4987L51.1261 32.8001ZM45.9979 30.9282H50.5325L48.2971 24.3449H48.2346L45.9979 30.9282Z" fill="white"/>
<path d="M66.665 31.386C66.665 34.7862 64.845 36.9708 62.0986 36.9708C61.4029 37.0072 60.711 36.847 60.1021 36.5084C59.4933 36.1698 58.9921 35.6667 58.6559 35.0565H58.6039V40.4761H56.3579V25.9144H58.5319V27.7343H58.5733C58.9249 27.127 59.4346 26.6264 60.0481 26.2858C60.6616 25.9452 61.356 25.7773 62.0573 25.7999C64.8344 25.7999 66.665 27.9951 66.665 31.386ZM64.3564 31.386C64.3564 29.1707 63.2116 27.7142 61.4648 27.7142C59.7488 27.7142 58.5945 29.2013 58.5945 31.386C58.5945 33.5906 59.7488 35.0671 61.4648 35.0671C63.2116 35.0671 64.3564 33.6213 64.3564 31.386Z" fill="white"/>
<path d="M78.7082 31.3859C78.7082 34.7862 76.8883 36.9708 74.1418 36.9708C73.4461 37.0072 72.7542 36.847 72.1454 36.5084C71.5365 36.1698 71.0353 35.6666 70.6991 35.0565H70.6471V40.4761H68.4011V25.9143H70.5751V27.7343H70.6164C70.9681 27.127 71.4777 26.6264 72.0913 26.2858C72.7048 25.9452 73.3991 25.7772 74.1005 25.7999C76.8776 25.7999 78.7082 27.9951 78.7082 31.3859ZM76.3996 31.3859C76.3996 29.1706 75.2548 27.7142 73.508 27.7142C71.792 27.7142 70.6377 29.2013 70.6377 31.3859C70.6377 33.5906 71.792 35.0671 73.508 35.0671C75.2548 35.0671 76.3996 33.6213 76.3996 31.3859H76.3996Z" fill="white"/>
<path d="M86.6678 32.6743C86.8342 34.1625 88.28 35.1397 90.2557 35.1397C92.1488 35.1397 93.5108 34.1625 93.5108 32.8206C93.5108 31.6557 92.6894 30.9582 90.7443 30.4801L88.7993 30.0116C86.0435 29.3459 84.7641 28.0571 84.7641 25.9657C84.7641 23.3763 87.0207 21.5977 90.225 21.5977C93.3963 21.5977 95.5703 23.3763 95.6435 25.9657H93.3762C93.2405 24.468 92.0024 23.5639 90.1931 23.5639C88.3838 23.5639 87.1458 24.4786 87.1458 25.8099C87.1458 26.871 87.9365 27.4953 89.8709 27.9733L91.5244 28.3793C94.6037 29.1075 95.8831 30.3444 95.8831 32.5396C95.8831 35.3474 93.6465 37.106 90.0893 37.106C86.761 37.106 84.5138 35.3887 84.3687 32.6742L86.6678 32.6743Z" fill="white"/>
<path d="M100.73 23.3242V25.9137H102.811V27.6923H100.73V33.7245C100.73 34.6616 101.147 35.0983 102.062 35.0983C102.309 35.094 102.555 35.0766 102.801 35.0463V36.8143C102.389 36.8912 101.971 36.926 101.553 36.9182C99.3377 36.9182 98.4738 36.0861 98.4738 33.964V27.6923H96.8828V25.9137H98.4737V23.3242H100.73Z" fill="white"/>
<path d="M104.016 31.3854C104.016 27.9427 106.044 25.7793 109.206 25.7793C112.378 25.7793 114.396 27.9426 114.396 31.3854C114.396 34.8376 112.389 36.9916 109.206 36.9916C106.024 36.9916 104.016 34.8376 104.016 31.3854ZM112.108 31.3854C112.108 29.0238 111.026 27.6299 109.206 27.6299C107.386 27.6299 106.305 29.0344 106.305 31.3854C106.305 33.7565 107.386 35.1398 109.206 35.1398C111.026 35.1398 112.108 33.7565 112.108 31.3854H112.108Z" fill="white"/>
<path d="M116.248 25.9143H118.39V27.7767H118.442C118.587 27.195 118.928 26.6809 119.407 26.3209C119.887 25.9609 120.475 25.7769 121.074 25.7998C121.333 25.7988 121.591 25.827 121.844 25.8836V27.9844C121.517 27.8845 121.176 27.8387 120.835 27.8487C120.508 27.8354 120.183 27.893 119.881 28.0173C119.579 28.1416 119.308 28.3299 119.085 28.569C118.863 28.8082 118.695 29.0926 118.593 29.4028C118.491 29.713 118.457 30.0416 118.494 30.3661V36.8562H116.248L116.248 25.9143Z" fill="white"/>
<path d="M132.199 33.6421C131.897 35.6284 129.962 36.9916 127.487 36.9916C124.304 36.9916 122.329 34.8589 122.329 31.4374C122.329 28.0052 124.315 25.7793 127.393 25.7793C130.42 25.7793 132.324 27.8589 132.324 31.1765V31.946H124.596V32.0818C124.56 32.4845 124.611 32.8901 124.744 33.2719C124.877 33.6536 125.09 34.0026 125.368 34.2957C125.647 34.5889 125.984 34.8194 126.358 34.972C126.733 35.1247 127.135 35.1959 127.539 35.1811C128.07 35.2308 128.603 35.1079 129.058 34.8306C129.513 34.5533 129.867 34.1364 130.066 33.642L132.199 33.6421ZM124.606 30.3763H130.077C130.097 30.0142 130.042 29.6519 129.916 29.312C129.789 28.9722 129.594 28.6621 129.342 28.4014C129.09 28.1406 128.787 27.9347 128.451 27.7967C128.116 27.6587 127.756 27.5914 127.393 27.5992C127.027 27.597 126.665 27.6673 126.326 27.806C125.988 27.9447 125.68 28.149 125.421 28.4072C125.162 28.6654 124.957 28.9723 124.817 29.3103C124.677 29.6483 124.606 30.0106 124.606 30.3763V30.3763Z" fill="white"/>
<path d="M45.7166 10.5521C46.1875 10.5183 46.66 10.5895 47.1 10.7604C47.5401 10.9313 47.9367 11.1978 48.2613 11.5406C48.5859 11.8834 48.8304 12.2939 48.9771 12.7426C49.1238 13.1913 49.1692 13.667 49.1098 14.1353C49.1098 16.4392 47.8646 17.7634 45.7166 17.7634H43.1118V10.5521H45.7166ZM44.2319 16.7436H45.5915C45.928 16.7637 46.2647 16.7086 46.5771 16.5821C46.8896 16.4557 47.1699 16.2612 47.3977 16.0127C47.6256 15.7643 47.7951 15.4682 47.894 15.146C47.993 14.8237 48.0188 14.4835 47.9697 14.15C48.0152 13.8179 47.9868 13.4797 47.8863 13.1599C47.7859 12.84 47.6159 12.5463 47.3886 12.2999C47.1613 12.0534 46.8823 11.8603 46.5717 11.7343C46.261 11.6083 45.9262 11.5526 45.5915 11.5712H44.2319V16.7436Z" fill="white"/>
<path d="M50.3747 15.0405C50.3405 14.6828 50.3814 14.322 50.4948 13.9811C50.6082 13.6402 50.7916 13.3268 51.0333 13.0609C51.2749 12.795 51.5695 12.5826 51.898 12.4372C52.2265 12.2919 52.5818 12.2168 52.9411 12.2168C53.3004 12.2168 53.6557 12.2919 53.9842 12.4372C54.3128 12.5826 54.6073 12.795 54.849 13.0609C55.0906 13.3268 55.274 13.6402 55.3874 13.9811C55.5009 14.322 55.5418 14.6828 55.5075 15.0405C55.5424 15.3985 55.502 15.7598 55.3889 16.1013C55.2758 16.4427 55.0925 16.7567 54.8508 17.0231C54.6091 17.2895 54.3143 17.5024 53.9854 17.648C53.6565 17.7937 53.3008 17.869 52.9411 17.869C52.5814 17.869 52.2257 17.7937 51.8968 17.648C51.5679 17.5024 51.2732 17.2895 51.0315 17.0231C50.7898 16.7567 50.6065 16.4427 50.4934 16.1013C50.3803 15.7598 50.3398 15.3985 50.3747 15.0405ZM54.4028 15.0405C54.4028 13.8608 53.8729 13.171 52.9429 13.171C52.0093 13.171 51.4842 13.8608 51.4842 15.0405C51.4842 16.2296 52.0094 16.9141 52.9429 16.9141C53.8729 16.9141 54.4028 16.2248 54.4028 15.0405H54.4028Z" fill="white"/>
<path d="M62.3307 17.7634H61.2166L60.0918 13.7553H60.0069L58.8868 17.7634H57.7833L56.2832 12.3213H57.3726L58.3474 16.4739H58.4277L59.5466 12.3213H60.5769L61.6958 16.4739H61.7808L62.7509 12.3213H63.8249L62.3307 17.7634Z" fill="white"/>
<path d="M65.0869 12.3213H66.1208V13.1859H66.2011C66.3372 12.8754 66.5668 12.6151 66.858 12.4413C67.1491 12.2675 67.4871 12.1888 67.8251 12.2163C68.0899 12.1964 68.3558 12.2363 68.603 12.3331C68.8503 12.4299 69.0726 12.5811 69.2535 12.7755C69.4344 12.9699 69.5693 13.2025 69.6481 13.4561C69.7269 13.7097 69.7476 13.9777 69.7087 14.2404V17.7634H68.6347V14.5101C68.6347 13.6355 68.2547 13.2006 67.4604 13.2006C67.2806 13.1922 67.1011 13.2228 66.9343 13.2903C66.7674 13.3578 66.6171 13.4606 66.4937 13.5915C66.3703 13.7225 66.2766 13.8787 66.2192 14.0492C66.1618 14.2198 66.1419 14.4008 66.1609 14.5797V17.7634H65.0869L65.0869 12.3213Z" fill="white"/>
<path d="M71.4199 10.1973H72.4939V17.7638H71.4199V10.1973Z" fill="white"/>
<path d="M73.9865 15.0406C73.9523 14.6829 73.9932 14.322 74.1067 13.9811C74.2201 13.6402 74.4035 13.3268 74.6452 13.0609C74.8869 12.795 75.1814 12.5826 75.51 12.4372C75.8386 12.2919 76.1939 12.2168 76.5532 12.2168C76.9125 12.2168 77.2678 12.2919 77.5964 12.4372C77.925 12.5826 78.2195 12.795 78.4612 13.0609C78.7029 13.3268 78.8863 13.6402 78.9997 13.9811C79.1132 14.322 79.1541 14.6829 79.1199 15.0406C79.1547 15.3986 79.1143 15.7599 79.0011 16.1014C78.888 16.4428 78.7047 16.7568 78.4629 17.0232C78.2212 17.2896 77.9264 17.5024 77.5975 17.6481C77.2686 17.7938 76.9129 17.869 76.5532 17.869C76.1935 17.869 75.8378 17.7938 75.5089 17.6481C75.18 17.5024 74.8852 17.2896 74.6435 17.0232C74.4017 16.7568 74.2184 16.4428 74.1053 16.1014C73.9921 15.7599 73.9517 15.3986 73.9865 15.0406ZM78.0146 15.0406C78.0146 13.8609 77.4847 13.1711 76.5547 13.1711C75.6211 13.1711 75.0959 13.8609 75.0959 15.0406C75.0959 16.2297 75.6211 16.9142 76.5547 16.9142C77.4847 16.9142 78.0146 16.2249 78.0146 15.0406H78.0146Z" fill="white"/>
<path d="M80.2507 16.2249C80.2507 15.2453 80.9801 14.6805 82.2748 14.6003L83.749 14.5153V14.0456C83.749 13.4708 83.3689 13.1462 82.6348 13.1462C82.0353 13.1462 81.6198 13.3663 81.5006 13.7511H80.4608C80.5706 12.8164 81.4499 12.2168 82.6844 12.2168C84.0487 12.2168 84.8183 12.896 84.8183 14.0456V17.7639H83.7844V16.9991H83.6994C83.5269 17.2735 83.2847 17.4971 82.9975 17.6472C82.7103 17.7973 82.3885 17.8685 82.0648 17.8536C81.8363 17.8773 81.6054 17.853 81.3869 17.782C81.1685 17.7111 80.9673 17.5952 80.7964 17.4417C80.6255 17.2883 80.4886 17.1007 80.3946 16.8911C80.3007 16.6815 80.2516 16.4546 80.2507 16.2249ZM83.749 15.7599V15.3049L82.42 15.3899C81.6706 15.44 81.3306 15.6949 81.3306 16.1747C81.3306 16.6645 81.7555 16.9495 82.3398 16.9495C82.511 16.9669 82.6839 16.9496 82.8483 16.8987C83.0126 16.8478 83.1651 16.7644 83.2966 16.6534C83.4281 16.5424 83.5359 16.4061 83.6136 16.2526C83.6913 16.0991 83.7373 15.9315 83.749 15.7599Z" fill="white"/>
<path d="M86.2302 15.0404C86.2302 13.3208 87.1142 12.2314 88.4892 12.2314C88.8293 12.2158 89.1669 12.2972 89.4624 12.4663C89.7579 12.6354 89.9992 12.8851 90.1581 13.1862H90.2383V10.1973H91.3123V17.7638H90.2832V16.904H90.1982C90.0271 17.2031 89.7773 17.4497 89.4761 17.617C89.1749 17.7844 88.8336 17.8662 88.4892 17.8535C87.1048 17.8535 86.2302 16.7641 86.2302 15.0404ZM87.3397 15.0404C87.3397 16.1947 87.8838 16.8892 88.7937 16.8892C89.699 16.8892 90.2584 16.1847 90.2584 15.0451C90.2584 13.9109 89.6931 13.1963 88.7937 13.1963C87.8896 13.1963 87.3396 13.8956 87.3396 15.0404H87.3397Z" fill="white"/>
<path d="M95.756 15.0405C95.7218 14.6828 95.7627 14.322 95.8761 13.9811C95.9896 13.6402 96.173 13.3268 96.4146 13.0609C96.6563 12.795 96.9508 12.5826 97.2793 12.4372C97.6079 12.2919 97.9632 12.2168 98.3225 12.2168C98.6817 12.2168 99.037 12.2919 99.3656 12.4372C99.6941 12.5826 99.9887 12.795 100.23 13.0609C100.472 13.3268 100.655 13.6402 100.769 13.9811C100.882 14.322 100.923 14.6828 100.889 15.0405C100.924 15.3985 100.883 15.7598 100.77 16.1013C100.657 16.4427 100.474 16.7567 100.232 17.0231C99.9904 17.2895 99.6956 17.5024 99.3668 17.648C99.0379 17.7937 98.6822 17.869 98.3225 17.869C97.9628 17.869 97.607 17.7937 97.2782 17.648C96.9493 17.5024 96.6545 17.2895 96.4128 17.0231C96.1711 16.7567 95.9878 16.4427 95.8747 16.1013C95.7616 15.7598 95.7212 15.3985 95.756 15.0405ZM99.7842 15.0405C99.7842 13.8608 99.2543 13.171 98.3242 13.171C97.3907 13.171 96.8655 13.8608 96.8655 15.0405C96.8655 16.2296 97.3907 16.9141 98.3242 16.9141C99.2543 16.9141 99.7842 16.2248 99.7842 15.0405Z" fill="white"/>
<path d="M102.33 12.3213H103.364V13.1859H103.444C103.58 12.8754 103.81 12.6151 104.101 12.4413C104.392 12.2675 104.73 12.1888 105.068 12.2163C105.333 12.1964 105.599 12.2363 105.846 12.3331C106.093 12.4299 106.316 12.5811 106.496 12.7755C106.677 12.9699 106.812 13.2025 106.891 13.4561C106.97 13.7097 106.991 13.9777 106.952 14.2404V17.7634H105.878V14.5101C105.878 13.6355 105.498 13.2006 104.703 13.2006C104.524 13.1922 104.344 13.2228 104.177 13.2903C104.01 13.3578 103.86 13.4606 103.737 13.5915C103.613 13.7225 103.52 13.8787 103.462 14.0492C103.405 14.2198 103.385 14.4008 103.404 14.5797V17.7634H102.33V12.3213Z" fill="white"/>
<path d="M113.02 10.9668V12.3465H114.199V13.2512H113.02V16.0495C113.02 16.6196 113.255 16.8692 113.79 16.8692C113.927 16.8687 114.064 16.8605 114.199 16.8444V17.739C114.007 17.7735 113.811 17.7919 113.615 17.7939C112.421 17.7939 111.945 17.3737 111.945 16.3245V13.2511H111.081V12.3464H111.945V10.9668H113.02Z" fill="white"/>
<path d="M115.667 10.1973H116.731V13.1963H116.816C116.959 12.8829 117.195 12.6211 117.492 12.4466C117.789 12.2722 118.132 12.1935 118.475 12.2214C118.739 12.207 119.002 12.251 119.247 12.3502C119.491 12.4493 119.711 12.6012 119.89 12.795C120.069 12.9888 120.203 13.2197 120.282 13.4712C120.362 13.7228 120.385 13.9888 120.35 14.2502V17.7638H119.275V14.5152C119.275 13.6459 118.87 13.2057 118.111 13.2057C117.926 13.1905 117.741 13.2159 117.567 13.28C117.393 13.3442 117.235 13.4455 117.105 13.5769C116.974 13.7083 116.874 13.8667 116.811 14.0409C116.748 14.2151 116.724 14.4009 116.741 14.5854V17.7638H115.667L115.667 10.1973Z" fill="white"/>
<path d="M126.612 16.2946C126.466 16.792 126.15 17.2222 125.719 17.51C125.288 17.7979 124.769 17.9249 124.254 17.869C123.895 17.8785 123.539 17.8098 123.21 17.6678C122.88 17.5258 122.586 17.3137 122.347 17.0465C122.108 16.7792 121.929 16.4631 121.825 16.1201C121.72 15.7771 121.691 15.4154 121.74 15.0601C121.692 14.7037 121.722 14.3412 121.826 13.9972C121.931 13.6531 122.108 13.3355 122.346 13.0659C122.584 12.7964 122.877 12.581 123.205 12.4345C123.534 12.288 123.89 12.2138 124.249 12.2169C125.763 12.2169 126.677 13.2514 126.677 14.9603V15.3351H122.834V15.3953C122.817 15.595 122.842 15.796 122.908 15.9855C122.973 16.1749 123.077 16.3486 123.214 16.4954C123.35 16.6422 123.516 16.7588 123.7 16.8378C123.884 16.9169 124.083 16.9566 124.283 16.9543C124.54 16.9852 124.801 16.9389 125.031 16.8214C125.262 16.7039 125.452 16.5206 125.578 16.2946L126.612 16.2946ZM122.834 14.5408H125.583C125.596 14.3581 125.572 14.1747 125.51 14.0022C125.448 13.8297 125.351 13.672 125.225 13.5392C125.099 13.4065 124.947 13.3016 124.777 13.2312C124.608 13.1609 124.426 13.1268 124.243 13.131C124.058 13.1287 123.873 13.1635 123.701 13.2336C123.529 13.3036 123.373 13.4074 123.241 13.5387C123.11 13.6701 123.006 13.8265 122.936 13.9986C122.866 14.1707 122.832 14.355 122.834 14.5408H122.834Z" fill="white"/>
</g>
<defs>
<clipPath id="clip0_1301_67">
<rect width="144.622" height="48.3426" fill="white"/>
</clipPath>
</defs>
</svg>
