<svg width="145" height="43" viewBox="0 0 145 43" fill="none" xmlns="http://www.w3.org/2000/svg">
<path d="M139.63 42.963H5.37037C2.41667 42.963 0 40.5463 0 37.5926V5.37038C0 2.41667 2.41667 8.13802e-06 5.37037 8.13802e-06H139.63C142.583 8.13802e-06 145 2.41667 145 5.37038V37.5926C145 40.5463 142.583 42.963 139.63 42.963Z" fill="#111827"/>
<path d="M139.63 8.13802e-06H5.37037C2.41667 8.13802e-06 0 2.41667 0 5.37038V37.5926C0 40.5463 2.41667 42.963 5.37037 42.963H139.63C142.583 42.963 145 40.5463 145 37.5926V5.37038C145 2.41667 142.583 8.13802e-06 139.63 8.13802e-06ZM139.63 0.859265C142.117 0.859265 144.141 2.88325 144.141 5.37038V37.5926C144.141 40.0802 142.117 42.1041 139.63 42.1041H5.37037C2.88324 42.1041 0.859259 40.0802 0.859259 37.5926V5.37038C0.859259 2.88325 2.88324 0.859265 5.37037 0.859265H139.63Z" fill="#A6A6A6"/>
<path d="M50.9308 11.0028C50.9308 11.9026 50.6643 12.6193 50.1306 13.1538C49.5244 13.7895 48.7343 14.1075 47.763 14.1075C46.8329 14.1075 46.042 13.7853 45.3917 13.14C44.7402 12.4951 44.415 11.6955 44.415 10.7414C44.415 9.78682 44.7402 8.98761 45.3917 8.3423C46.042 7.69743 46.8329 7.37478 47.763 7.37478C48.2246 7.37478 48.6664 7.465 49.086 7.64501C49.5055 7.82546 49.842 8.06498 50.0938 8.36497L49.5273 8.93176C49.1007 8.422 48.5133 8.16734 47.763 8.16734C47.0846 8.16734 46.4981 8.40567 46.0031 8.88267C45.5079 9.3602 45.2604 9.97941 45.2604 10.7414C45.2604 11.5033 45.5079 12.1225 46.0031 12.6C46.4981 13.077 47.0846 13.3154 47.763 13.3154C48.4827 13.3154 49.0826 13.0757 49.563 12.5958C49.8748 12.2832 50.0551 11.8486 50.1033 11.2905H47.763V10.5164H50.8859C50.9161 10.6848 50.9308 10.8463 50.9308 11.0028Z" fill="white"/>
<path d="M50.931 11.0028H50.8236C50.8228 11.8821 50.5659 12.5651 50.0549 13.0779L50.0537 13.0788L50.0533 13.0796C49.4663 13.6933 48.7119 13.9988 47.7633 14.0001C46.8579 13.9988 46.1002 13.69 45.4674 13.0641C44.8361 12.4368 44.5239 11.6711 44.5227 10.7414C44.5239 9.81122 44.8361 9.04594 45.4674 8.41911C46.1002 7.79271 46.8579 7.48348 47.7633 7.48219C48.2109 7.48219 48.6372 7.56951 49.0438 7.74362C49.4507 7.91902 49.7722 8.14887 50.0117 8.43425L50.094 8.36497L50.0181 8.28904L49.4516 8.85626L49.5275 8.93176L49.6102 8.86302C49.1637 8.32803 48.537 8.05833 47.7633 8.05994C47.0597 8.05908 46.4409 8.31041 45.929 8.80556C45.4121 9.30232 45.1524 9.95632 45.1533 10.7414C45.1524 11.5264 45.4121 12.1804 45.929 12.6772C46.4409 13.1723 47.0597 13.4237 47.7633 13.4228C48.5067 13.4241 49.1403 13.1719 49.6391 12.6718C49.9723 12.3378 50.1611 11.8751 50.2106 11.2998L50.2206 11.1831H47.8707V10.6239H50.8861V10.5165L50.7803 10.5354C50.8098 10.6982 50.8236 10.853 50.8236 11.0028H50.931H51.0384C51.0384 10.8395 51.0233 10.6718 50.9918 10.4972L50.9759 10.409H47.6559V11.2905V11.3979H50.1036V11.2905L49.9966 11.2813C49.9492 11.8218 49.7772 12.2287 49.4873 12.5199C49.0257 12.9797 48.4594 13.2067 47.7633 13.208C47.11 13.2071 46.5558 12.9822 46.0779 12.5228C45.6047 12.0651 45.3693 11.4806 45.3681 10.7414C45.3693 10.0021 45.6047 9.41768 46.0779 8.9599C46.5558 8.50052 47.11 8.27561 47.7633 8.27475C48.4895 8.27647 49.038 8.51642 49.4454 9.00104L49.5209 9.09083L50.1699 8.44091L50.2395 8.37131L50.1762 8.29613C49.9123 7.98153 49.5607 7.73181 49.1285 7.54642C48.6956 7.3605 48.2386 7.26738 47.7633 7.26738C46.8084 7.26652 45.9844 7.60217 45.316 8.26637C44.6451 8.92929 44.307 9.76256 44.3079 10.7414C44.307 11.7197 44.6451 12.5534 45.3164 13.2168C45.9844 13.8806 46.8084 14.2158 47.7633 14.2149C48.7576 14.2158 49.5825 13.8855 50.2085 13.2281L50.1308 13.1538L50.2068 13.2298C50.7631 12.6738 51.0392 11.9228 51.0384 11.0028H50.931Z" fill="white"/>
<path d="M55.8815 8.31023H52.9467V10.3535H55.5934V11.128H52.9467V13.1713H55.8815V13.963H52.1194V7.51853H55.8815V8.31023Z" fill="white"/>
<path d="M55.8813 8.31122V8.20381H52.8391V10.4619H55.4857V11.0212L52.8391 11.0215V13.2797H55.7739V13.8566H52.2265V7.62692H55.7739V8.31122H55.8813V8.20381V8.31122H55.9887V7.51952V7.41211H52.0117V14.0714H55.9887V13.1723V13.0649H53.0539V11.2364H55.7005V10.3545V10.2471H53.0539V8.41862H55.9887V8.31122H55.8813Z" fill="white"/>
<path d="M59.3737 13.963H58.545V8.31023H56.7451V7.51853H61.1736V8.31023H59.3737V13.963Z" fill="white"/>
<path d="M59.3732 13.964V13.8566H58.652V8.20381H56.852V7.62692H61.0657V8.20381H59.2658V13.964H59.3732V13.8566V13.964H59.4806V8.41862H61.2805V7.51952V7.41211H56.6372V8.31122V8.41862H58.4371V14.0714H59.3732H59.4806V13.964H59.3732Z" fill="white"/>
<path d="M64.3779 13.963V7.51853H65.2057V13.963H64.3779Z" fill="white"/>
<path d="M64.3779 13.964H64.4853V7.62692H65.0983V13.8566H64.3779V13.964H64.4853H64.3779V14.0714H65.2057H65.3131V7.41211H64.3779H64.2705V14.0714H64.3779V13.964Z" fill="white"/>
<path d="M68.8785 13.963H68.0498V8.31023H66.25V7.51853H70.6784V8.31023H68.8785V13.963Z" fill="white"/>
<path d="M68.8792 13.964V13.8566H68.158V8.20381H66.3581V7.62692H70.5717V8.20381H68.7718V13.964H68.8792V13.8566V13.964H68.9866V8.41862H70.7865V7.51952V7.41211H66.1433V8.31122V8.41862H67.9431V14.0714H68.8792H68.9866V13.964H68.8792Z" fill="white"/>
<path d="M74.9482 12.5912C75.4252 13.0741 76.0088 13.3154 76.699 13.3154C77.3892 13.3154 77.9732 13.0741 78.4494 12.5912C78.9269 12.1083 79.1661 11.4911 79.1661 10.7414C79.1661 9.99165 78.9269 9.37438 78.4494 8.89148C77.9732 8.40857 77.3892 8.16734 76.699 8.16734C76.0088 8.16734 75.4252 8.40857 74.9482 8.89148C74.4719 9.37438 74.2329 9.99165 74.2329 10.7414C74.2329 11.4911 74.4719 12.1083 74.9482 12.5912ZM79.062 13.1307C78.4284 13.7823 77.6405 14.1075 76.699 14.1075C75.7566 14.1075 74.9691 13.7823 74.3369 13.1307C73.7029 12.48 73.3875 11.6833 73.3875 10.7414C73.3875 9.79939 73.7029 9.00264 74.3369 8.35197C74.9691 7.70033 75.7566 7.37478 76.699 7.37478C77.6355 7.37478 78.4213 7.70205 79.0578 8.35616C79.6934 9.01027 80.0115 9.8053 80.0115 10.7414C80.0115 11.6833 79.6942 12.48 79.062 13.1307Z" fill="white"/>
<path d="M74.9479 12.5912L74.8716 12.6668C75.3663 13.169 75.9834 13.4241 76.6988 13.4228C77.4137 13.4241 78.0317 13.169 78.5256 12.6668C79.0235 12.1641 79.274 11.5137 79.2732 10.7414C79.274 9.969 79.0235 9.31865 78.5256 8.81598C78.0317 8.31374 77.4137 8.05865 76.6988 8.05994C75.9834 8.05865 75.3663 8.31374 74.8716 8.81598C74.3748 9.31865 74.1239 9.969 74.1252 10.7414C74.1239 11.5137 74.3748 12.1641 74.8716 12.6668L74.9479 12.5912L75.0243 12.5157C74.5687 12.0521 74.3409 11.4688 74.34 10.7414C74.3409 10.0139 74.5687 9.43068 75.0243 8.967C75.4841 8.50343 76.0333 8.27604 76.6988 8.27476C77.3637 8.27604 77.9142 8.50343 78.3728 8.967C78.8293 9.43068 79.0571 10.0139 79.058 10.7414C79.0571 11.4688 78.8293 12.0521 78.3728 12.5157C77.9142 12.9793 77.3637 13.2067 76.6988 13.208C76.0333 13.2067 75.4841 12.9793 75.0243 12.5157L74.9479 12.5912ZM79.0617 13.1308L78.9849 13.0561C78.3691 13.6871 77.6159 13.9988 76.6988 14.0001C75.7812 13.9988 75.0281 13.6871 74.4134 13.0561L74.4105 13.0528L74.4134 13.0561C73.7988 12.4229 73.4955 11.6594 73.4946 10.7414C73.4955 9.82336 73.7988 9.0598 74.4134 8.42663C75.0281 7.79561 75.7812 7.48349 76.6988 7.4822C77.61 7.48349 78.3614 7.7969 78.9808 8.43125C79.5975 9.06731 79.9025 9.82969 79.9038 10.7414C79.9025 11.6594 79.5984 12.4229 78.9849 13.0561L79.0617 13.1308L79.139 13.2054C79.7901 12.5367 80.1194 11.7072 80.1186 10.7414C80.1194 9.78104 79.7888 8.95325 79.1347 8.28152C78.4802 7.60722 77.6604 7.2662 76.6988 7.26738C75.7321 7.2662 74.9098 7.60561 74.2594 8.27733V8.2769C73.6071 8.94605 73.2789 9.77556 73.2798 10.7414C73.2789 11.7072 73.6071 12.5367 74.2594 13.2058L74.2623 13.2088L74.2594 13.2054C74.9098 13.8771 75.7321 14.2158 76.6988 14.2149C77.665 14.2158 78.4873 13.8771 79.139 13.2054L79.0617 13.1308Z" fill="white"/>
<path d="M81.1733 13.963V7.51853H82.1811L85.3131 12.5319H85.3488L85.3131 11.2899V7.51853H86.1418V13.963H85.2775L82.0007 8.70667H81.965L82.0007 9.94905V13.963H81.1733Z" fill="white"/>
<path d="M81.1738 13.964H81.2812V7.62692H82.122L85.254 12.6403H85.3493H85.4596L85.421 11.2893V7.62692H86.0348V13.8566H85.3376L82.0608 8.60025H81.9655H81.8552L81.8938 9.95176V13.8566H81.1738V13.964H81.2812H81.1738V14.0714H82.0012H82.1086V9.94832L82.0729 8.70476L81.9655 8.70766V8.81507H82.0012V8.70766L81.9101 8.7648L85.2183 14.0714H86.1423H86.2497V7.41211H85.3136H85.2062V11.2922L85.2419 12.5358L85.3493 12.5329V12.4255H85.3136V12.5329L85.4047 12.4758L82.2411 7.41211H81.1738H81.0664V14.0714H81.1738V13.964Z" fill="white"/>
<path d="M114.857 32.2225H116.862V18.7953H114.857V32.2225ZM132.909 23.6321L130.612 29.4535H130.543L128.159 23.6321H126L129.575 31.7685L127.537 36.2943H129.628L135.138 23.6321H132.909ZM121.543 30.6974C120.886 30.6974 119.971 30.3693 119.971 29.5571C119.971 28.5207 121.112 28.1234 122.095 28.1234C122.977 28.1234 123.391 28.3134 123.927 28.5728C123.771 29.8164 122.7 30.6974 121.543 30.6974ZM121.785 23.3383C120.334 23.3383 118.831 23.9777 118.209 25.3942L119.988 26.1368C120.368 25.3942 121.076 25.1521 121.819 25.1521C122.856 25.1521 123.91 25.7743 123.927 26.8799V27.0179C123.564 26.8106 122.787 26.4997 121.837 26.4997C119.919 26.4997 117.967 27.5532 117.967 29.5226C117.967 31.3192 119.539 32.4768 121.301 32.4768C122.649 32.4768 123.391 31.8722 123.858 31.164H123.927V32.2003H125.861V27.0523C125.861 24.6688 124.082 23.3383 121.785 23.3383ZM109.399 25.2666H106.548V20.6641H109.399C110.897 20.6641 111.748 21.9046 111.748 22.9653C111.748 24.0059 110.897 25.2666 109.399 25.2666ZM109.347 18.7953H104.545V32.2225H106.548V27.1354H109.347C111.568 27.1354 113.752 25.5272 113.752 22.9653C113.752 20.4035 111.568 18.7953 109.347 18.7953ZM83.1603 30.6999C81.7757 30.6999 80.6164 29.5407 80.6164 27.9485C80.6164 26.3395 81.7757 25.1626 83.1603 25.1626C84.5273 25.1626 85.6 26.3395 85.6 27.9485C85.6 29.5407 84.5273 30.6999 83.1603 30.6999ZM85.4616 24.3839H85.3923C84.9426 23.8476 84.077 23.3631 82.987 23.3631C80.7029 23.3631 78.6093 25.3703 78.6093 27.9485C78.6093 30.5095 80.7029 32.4994 82.987 32.4994C84.077 32.4994 84.9426 32.0148 85.3923 31.4614H85.4616V32.1189C85.4616 33.8668 84.5273 34.8012 83.0218 34.8012C81.7933 34.8012 81.0319 33.9184 80.7201 33.1745L78.9727 33.9012C79.4745 35.1124 80.807 36.6007 83.0218 36.6007C85.3751 36.6007 87.3651 35.2161 87.3651 31.842V23.64H85.4616V24.3839ZM88.7492 32.2225H90.7565V18.7949H88.7492V32.2225ZM93.7155 27.7928C93.6635 26.0277 95.0825 25.1282 96.1033 25.1282C96.8998 25.1282 97.5743 25.5259 97.7988 26.0974L93.7155 27.7928ZM99.9448 26.2702C99.5646 25.249 98.4046 23.3631 96.034 23.3631C93.6807 23.3631 91.7256 25.2146 91.7256 27.9313C91.7256 30.4923 93.6635 32.4994 96.2589 32.4994C98.3531 32.4994 99.5646 31.2189 100.066 30.475L98.5088 29.4366C97.99 30.1981 97.2801 30.6999 96.2589 30.6999C95.2381 30.6999 94.5115 30.2326 94.0441 29.3158L100.152 26.7892L99.9448 26.2702ZM51.2805 24.7648V26.7027H55.9178C55.7793 27.7928 55.416 28.5887 54.8622 29.1425C54.1876 29.8176 53.132 30.5615 51.2805 30.5615C48.4253 30.5615 46.1932 28.2602 46.1932 25.4051C46.1932 22.55 48.4253 20.2483 51.2805 20.2483C52.8206 20.2483 53.945 20.8541 54.7757 21.6328L56.1427 20.2659C54.9834 19.1582 53.4432 18.3104 51.2805 18.3104C47.3697 18.3104 44.082 21.4944 44.082 25.4051C44.082 29.3158 47.3697 32.4994 51.2805 32.4994C53.3917 32.4994 54.9835 31.8076 56.2292 30.5095C57.5097 29.229 57.9078 27.4295 57.9078 25.9761C57.9078 25.5259 57.8734 25.111 57.8038 24.7648H51.2805ZM63.18 30.6999C61.7954 30.6999 60.6014 29.5579 60.6014 27.9313C60.6014 26.2874 61.7954 25.1626 63.18 25.1626C64.5641 25.1626 65.7581 26.2874 65.7581 27.9313C65.7581 29.5579 64.5641 30.6999 63.18 30.6999ZM63.18 23.3631C60.6534 23.3631 58.5942 25.2838 58.5942 27.9313C58.5942 30.5615 60.6534 32.4994 63.18 32.4994C65.7061 32.4994 67.7654 30.5615 67.7654 27.9313C67.7654 25.2838 65.7061 23.3631 63.18 23.3631ZM73.1831 30.6999C71.799 30.6999 70.6049 29.5579 70.6049 27.9313C70.6049 26.2874 71.799 25.1626 73.1831 25.1626C74.5673 25.1626 75.7613 26.2874 75.7613 27.9313C75.7613 29.5579 74.5673 30.6999 73.1831 30.6999ZM73.1831 23.3631C70.6566 23.3631 68.5978 25.2838 68.5978 27.9313C68.5978 30.5615 70.6566 32.4994 73.1831 32.4994C75.7093 32.4994 77.7685 30.5615 77.7685 27.9313C77.7685 25.2838 75.7093 23.3631 73.1831 23.3631Z" fill="white"/>
<path d="M11.2883 34.7882L11.2085 34.7118C10.896 34.3811 10.7114 33.8676 10.7114 33.2026V33.3591V9.60489C10.7114 9.60274 10.7114 9.60113 10.7114 9.59941C10.7114 9.60145 10.7114 9.60317 10.7114 9.60532V9.76224C10.7114 9.04218 10.9266 8.49977 11.287 8.17454L24.5946 21.4818L11.2883 34.7882ZM10.7114 9.59812C10.7114 9.53894 10.713 9.48148 10.716 9.42487C10.713 9.48105 10.7114 9.53894 10.7114 9.59812ZM10.716 9.4223C10.716 9.42154 10.716 9.42068 10.7164 9.41983C10.716 9.42068 10.716 9.42154 10.716 9.4223ZM10.7164 9.41478C10.7164 9.41435 10.7164 9.41392 10.7164 9.41349C10.7164 9.41392 10.7164 9.41435 10.7164 9.41478Z" fill="url(#paint0_linear_1301_102)"/>
<path d="M29.0292 26.0763L29.1303 26.0188L34.3857 23.0328C34.8867 22.7479 35.2207 22.4026 35.3873 22.0372C35.2211 22.4026 34.8871 22.7483 34.3857 23.0332L29.1303 26.0192L29.0292 26.0763ZM29.0305 25.9189L24.594 21.4817L29.03 17.0452L34.3857 20.0879C35.0658 20.4743 35.4476 20.9724 35.5114 21.4813C35.5114 21.4817 35.5114 21.4825 35.5114 21.4833C35.4476 21.991 35.0658 22.4895 34.3857 22.8758L29.0305 25.9189Z" fill="url(#paint1_linear_1301_102)"/>
<path d="M12.2372 35.295C11.8655 35.295 11.5411 35.1742 11.2882 34.9459L11.2886 34.9455C11.5416 35.1737 11.8664 35.295 12.2381 35.295C12.2703 35.295 12.3031 35.2941 12.3363 35.2925C12.3026 35.2941 12.2695 35.295 12.2372 35.295ZM12.2377 35.1376C11.8659 35.1381 11.5416 35.0168 11.2886 34.7886V34.7883L24.5949 21.4819L29.0314 25.9191L13.4409 34.7773C13.0096 35.0219 12.6009 35.1376 12.2377 35.1376ZM11.2849 34.943C11.2613 34.9217 11.2382 34.899 11.2156 34.8755L11.2849 34.943Z" fill="url(#paint2_linear_1301_102)"/>
<path d="M24.5949 21.4825L11.2874 8.17526C11.5403 7.94745 11.8642 7.82662 12.2355 7.82662C12.5998 7.82662 13.0088 7.94284 13.441 8.18783L29.031 17.046L24.5949 21.4825ZM29.1313 16.9458L13.441 8.03101C13.0088 7.78591 12.5998 7.6697 12.2355 7.6697C12.2338 7.6697 12.2326 7.6697 12.2309 7.6697C12.2331 7.6697 12.2347 7.6697 12.2373 7.6697C12.6006 7.6697 13.0092 7.78548 13.441 8.03058L29.1313 16.9458Z" fill="url(#paint3_linear_1301_102)"/>
<path d="M12.3362 35.294C12.6739 35.2747 13.0478 35.1585 13.4409 34.9357L29.03 26.0779L13.4409 34.9357C13.0481 35.1589 12.6739 35.2747 12.3362 35.294ZM11.2881 34.9474L11.2848 34.9445C11.286 34.9454 11.2873 34.9466 11.2881 34.9474ZM11.2155 34.877L11.2087 34.8703V34.8699C11.2113 34.8723 11.2134 34.8748 11.2155 34.877Z" fill="#111827"/>
<path d="M29.0295 26.0763L29.1307 26.0188L29.0295 26.0763Z" fill="url(#paint4_linear_1301_102)"/>
<path d="M12.2375 35.295C11.8658 35.295 11.541 35.1737 11.2881 34.9455L11.2876 34.9459C11.2868 34.9451 11.2855 34.9439 11.2843 34.943L11.215 34.8755C11.2129 34.8733 11.2108 34.8708 11.2083 34.8684L11.2881 34.7886C11.541 35.0168 11.8654 35.1381 12.2371 35.1376C12.6004 35.1376 13.009 35.0219 13.4404 34.7773L29.0308 25.9191L29.1307 26.019L29.0295 26.0764L13.4404 34.9342C13.0473 35.157 12.6734 35.2732 12.3357 35.2925C12.3025 35.2941 12.2698 35.295 12.2375 35.295Z" fill="url(#paint5_linear_1301_102)"/>
<path d="M11.2083 34.8702C10.8957 34.5395 10.7112 34.026 10.7112 33.361V33.3606C10.7112 34.026 10.8957 34.5391 11.2083 34.8698V34.8702Z" fill="#111827"/>
<path d="M11.2085 34.8702C10.896 34.5395 10.7114 34.0264 10.7114 33.361V33.2045C10.7114 33.8695 10.896 34.383 11.2085 34.7137L11.2883 34.7901L11.2085 34.8702Z" fill="url(#paint6_linear_1301_102)"/>
<path d="M11.2083 34.8702L11.2881 34.7901V34.7904L11.2083 34.8702Z" fill="url(#paint7_linear_1301_102)"/>
<path d="M35.3877 22.0382C35.4703 21.8569 35.5119 21.6706 35.5119 21.4843C35.5119 21.4839 35.5119 21.4835 35.5119 21.4835C35.5119 21.6702 35.4703 21.8564 35.3877 22.0382Z" fill="#111827"/>
<path d="M29.1309 26.0206L29.031 25.9207L34.3862 22.8776C35.0663 22.4913 35.4482 21.9928 35.512 21.4851C35.512 21.6714 35.4704 21.8577 35.3878 22.039C35.2212 22.4044 34.8873 22.7497 34.3862 23.0346L29.1309 26.0206Z" fill="url(#paint8_linear_1301_102)"/>
<path d="M35.5124 21.4825V21.4821C35.5119 20.9202 35.1364 20.3585 34.3866 19.9322L29.1313 16.9462H29.1309L29.1313 16.9458L34.3866 19.9318C35.1373 20.3581 35.5132 20.9207 35.5124 21.4825Z" fill="#404040"/>
<path d="M35.5117 21.4825C35.4479 20.9736 35.066 20.4756 34.3859 20.0891L29.0303 17.0465L29.1302 16.9466H29.1306L34.3859 19.9326C35.1357 20.3589 35.5112 20.9207 35.5117 21.4825Z" fill="url(#paint9_linear_1301_102)"/>
<path d="M10.7112 9.60066C10.7112 9.60024 10.7112 9.59981 10.7112 9.59938C10.7112 9.59981 10.7112 9.60024 10.7112 9.60066ZM10.7158 9.42613C10.7158 9.42527 10.7158 9.42441 10.7158 9.42355C10.7158 9.42441 10.7158 9.42527 10.7158 9.42613ZM10.7161 9.42108C10.7161 9.41936 10.7161 9.41775 10.7161 9.41603C10.7161 9.41775 10.7161 9.41936 10.7161 9.42108ZM10.7161 9.41474C10.7783 8.31135 11.3783 7.67399 12.227 7.67023C11.859 7.67238 11.5385 7.79321 11.2876 8.01931V8.01888L11.2846 8.02188C11.2582 8.04573 11.2331 8.07097 11.2083 8.09696C10.9263 8.39523 10.7485 8.84205 10.7161 9.41474Z" fill="#404040"/>
<path d="M10.7114 9.76473V9.60781C10.7114 9.60566 10.7114 9.60394 10.7114 9.6019C10.7114 9.60147 10.7114 9.60104 10.7114 9.60061C10.7114 9.54143 10.713 9.48354 10.716 9.42736C10.716 9.4265 10.716 9.42564 10.716 9.42478C10.716 9.42403 10.716 9.42317 10.7164 9.42231C10.7164 9.42059 10.7164 9.41898 10.7164 9.41727C10.7164 9.41684 10.7164 9.41641 10.7164 9.41598C10.7487 8.84328 10.9266 8.39646 11.2085 8.09819L11.287 8.17703C10.9266 8.50226 10.7114 9.04467 10.7114 9.76473ZM11.2849 8.02311L11.2879 8.02011C11.287 8.0214 11.2857 8.02226 11.2849 8.02311Z" fill="url(#paint10_linear_1301_102)"/>
<path d="M29.0304 17.045L13.4404 8.18679C13.0082 7.94179 12.5992 7.82558 12.235 7.82558C11.8637 7.82558 11.5397 7.94641 11.2868 8.17422L11.2083 8.09538C11.2331 8.06939 11.2582 8.04415 11.2846 8.02031C11.2855 8.01945 11.2868 8.01859 11.2876 8.01773C11.5385 7.79164 11.859 7.6708 12.227 7.66866C12.2279 7.66866 12.2291 7.66866 12.2303 7.66866C12.2321 7.66866 12.2332 7.66866 12.235 7.66866C12.5992 7.66866 13.0082 7.78487 13.4404 8.02997L29.1307 16.9448L29.1303 16.9451L29.0304 17.045Z" fill="url(#paint11_linear_1301_102)"/>
<defs>
<linearGradient id="paint0_linear_1301_102" x1="23.4146" y1="9.35431" x2="5.38896" y2="27.38" gradientUnits="userSpaceOnUse">
<stop stop-color="#00A0FF"/>
<stop offset="0.00657445" stop-color="#00A1FF"/>
<stop offset="0.2601" stop-color="#00BEFF"/>
<stop offset="0.5122" stop-color="#00D2FF"/>
<stop offset="0.7604" stop-color="#00DFFF"/>
<stop offset="1" stop-color="#00E3FF"/>
</linearGradient>
<linearGradient id="paint1_linear_1301_102" x1="36.3401" y1="21.4823" x2="10.3507" y2="21.4823" gradientUnits="userSpaceOnUse">
<stop stop-color="#FFE000"/>
<stop offset="0.4087" stop-color="#FFBD00"/>
<stop offset="0.7754" stop-color="#FFA500"/>
<stop offset="1" stop-color="#FF9C00"/>
</linearGradient>
<linearGradient id="paint2_linear_1301_102" x1="26.6663" y1="23.9472" x2="2.22224" y2="48.3913" gradientUnits="userSpaceOnUse">
<stop stop-color="#FF3A44"/>
<stop offset="1" stop-color="#C31162"/>
</linearGradient>
<linearGradient id="paint3_linear_1301_102" x1="7.83818" y1="0.189417" x2="18.7535" y2="11.1047" gradientUnits="userSpaceOnUse">
<stop stop-color="#32A071"/>
<stop offset="0.0685" stop-color="#2DA771"/>
<stop offset="0.4762" stop-color="#15CF74"/>
<stop offset="0.8009" stop-color="#06E775"/>
<stop offset="1" stop-color="#00F076"/>
</linearGradient>
<linearGradient id="paint4_linear_1301_102" x1="36.3402" y1="21.4822" x2="10.3518" y2="21.4822" gradientUnits="userSpaceOnUse">
<stop stop-color="#CCB300"/>
<stop offset="0.4087" stop-color="#CC9700"/>
<stop offset="0.7754" stop-color="#CC8400"/>
<stop offset="1" stop-color="#CC7D00"/>
</linearGradient>
<linearGradient id="paint5_linear_1301_102" x1="26.6658" y1="23.9472" x2="2.22168" y2="48.3913" gradientUnits="userSpaceOnUse">
<stop stop-color="#CC2E36"/>
<stop offset="1" stop-color="#9C0E4E"/>
</linearGradient>
<linearGradient id="paint6_linear_1301_102" x1="23.4146" y1="9.35621" x2="5.38895" y2="27.3818" gradientUnits="userSpaceOnUse">
<stop stop-color="#008DE0"/>
<stop offset="0.00657445" stop-color="#008DE0"/>
<stop offset="0.2601" stop-color="#00A7E0"/>
<stop offset="0.5122" stop-color="#00B8E0"/>
<stop offset="0.7604" stop-color="#00C4E0"/>
<stop offset="1" stop-color="#00C7E0"/>
</linearGradient>
<linearGradient id="paint7_linear_1301_102" x1="26.6659" y1="23.9495" x2="2.22303" y2="48.3939" gradientUnits="userSpaceOnUse">
<stop stop-color="#E0333C"/>
<stop offset="1" stop-color="#AB0F56"/>
</linearGradient>
<linearGradient id="paint8_linear_1301_102" x1="36.3406" y1="21.4841" x2="10.3512" y2="21.4841" gradientUnits="userSpaceOnUse">
<stop stop-color="#E0C500"/>
<stop offset="0.4087" stop-color="#E0A600"/>
<stop offset="0.7754" stop-color="#E09100"/>
<stop offset="1" stop-color="#E08900"/>
</linearGradient>
<linearGradient id="paint9_linear_1301_102" x1="36.3403" y1="21.4836" x2="10.351" y2="21.4836" gradientUnits="userSpaceOnUse">
<stop stop-color="#FFE840"/>
<stop offset="0.4087" stop-color="#FFCE40"/>
<stop offset="0.7754" stop-color="#FFBC40"/>
<stop offset="1" stop-color="#FFB540"/>
</linearGradient>
<linearGradient id="paint10_linear_1301_102" x1="23.4146" y1="9.35679" x2="5.38894" y2="27.3824" gradientUnits="userSpaceOnUse">
<stop stop-color="#40B8FF"/>
<stop offset="0.00657445" stop-color="#40B9FF"/>
<stop offset="0.2601" stop-color="#40CEFF"/>
<stop offset="0.5122" stop-color="#40DDFF"/>
<stop offset="0.7604" stop-color="#40E7FF"/>
<stop offset="1" stop-color="#40EAFF"/>
</linearGradient>
<linearGradient id="paint11_linear_1301_102" x1="7.83759" y1="0.188373" x2="18.7529" y2="11.1037" gradientUnits="userSpaceOnUse">
<stop stop-color="#65B895"/>
<stop offset="0.0685" stop-color="#62BD95"/>
<stop offset="0.4762" stop-color="#50DB97"/>
<stop offset="0.8009" stop-color="#44ED98"/>
<stop offset="1" stop-color="#40F498"/>
</linearGradient>
</defs>
</svg>
