<svg width="119" height="47" viewBox="0 0 119 47" fill="none" xmlns="http://www.w3.org/2000/svg">
<path d="M25.6184 1.06641V6.04956" stroke="#FC921C" stroke-width="2.13324" stroke-miterlimit="10" stroke-linecap="round"/>
<path d="M18.3723 4.91309L20.0306 7.18816" stroke="#075DF1" stroke-width="2.13324" stroke-miterlimit="10" stroke-linecap="round"/>
<path d="M11.8242 8.84961L15.7538 11.2986" stroke="#E145CE" stroke-width="2.13324" stroke-miterlimit="10" stroke-linecap="round"/>
<path d="M32.9532 4.91309L31.2949 7.18816" stroke="#A2E241" stroke-width="2.13324" stroke-miterlimit="10" stroke-linecap="round"/>
<path d="M39.4978 8.84961L35.5718 11.2986" stroke="#DC4E22" stroke-width="2.13324" stroke-miterlimit="10" stroke-linecap="round"/>
<path d="M22.2098 24.0267C23.4641 26.93 25.8524 28.229 28.4106 27.2814C30.0902 26.6603 31.256 25.269 31.1142 23.7747L36.4682 21.7907C36.7623 26.277 34.3706 29.7588 30.1717 31.3169C23.6165 33.7446 19.0101 31.3595 16.3774 24.2326C14.131 18.1492 16.1578 12.9353 22.1921 10.6993C28.2264 8.46326 32.8717 11.1997 35.756 19.0081L22.2062 24.0303L22.2098 24.0267ZM29.1902 17.7055C28.0315 14.8129 25.5937 14.1243 23.5563 14.8768C21.4763 15.6469 20.3495 17.8865 21.1574 20.6798L29.1902 17.702V17.7055Z" fill="#FC921C"/>
<path d="M48.0972 11.1364C41.6554 11.1364 39.3699 14.0361 39.2884 18.2029H44.2243C44.4688 16.407 45.4468 15.2216 47.8527 15.2216C49.9327 15.2216 51.2366 15.9988 51.2366 17.305C51.2366 18.6927 50.5031 19.2251 47.8527 19.5907C42.5094 20.3254 38.6365 20.9784 38.6365 26.7779C38.6365 30.0468 40.7554 32.2935 45.3228 32.2935C48.0122 32.2935 50.1346 31.3529 51.3996 29.9651C51.4421 30.5792 51.5626 31.2713 51.7256 31.7611H56.6615V19.0583C56.6615 13.9935 54.4575 11.1328 48.0972 11.1328V11.1364ZM51.3181 24.1231C51.2756 26.4904 49.2382 28.4922 46.5062 28.4922C44.8338 28.4922 43.9373 27.7575 43.9373 26.2455C43.9373 24.5312 44.9153 23.6723 47.9342 23.1009C49.8901 22.7318 50.8291 22.4478 51.3606 21.9154L51.3217 24.1195L51.3181 24.1231Z" fill="#572EEE"/>
<path d="M63.9573 14.0751V11.6652H58.9824V31.7611H64.2833V21.305C64.2833 18.0787 65.8742 16.446 69.1341 16.446C69.6231 16.446 70.1121 16.4886 70.6011 16.5667V11.1328H69.9066C67.7451 11.1328 65.7077 11.3777 63.9537 14.0751H63.9573Z" fill="#572EEE"/>
<path d="M83.6122 11.1367C80.3913 11.1367 78.3503 12.3612 77.1279 14.6079V11.6656H72.0715V31.7614H77.3724V20.2441C77.3724 17.1811 78.7189 15.6301 81.4898 15.6301C84.0162 15.6301 84.9162 16.489 84.9162 19.591V31.7614H90.2595V17.8342C90.2595 13.465 87.4461 11.1367 83.6122 11.1367Z" fill="#572EEE"/>
<path d="M98.0054 11.665H92.7046V31.7609H98.0054V11.665Z" fill="#572EEE"/>
<path d="M109.22 27.8431C107.14 27.8431 105.305 25.7206 105.305 21.3479C105.305 16.9752 107.14 15.5484 109.383 15.5484C111.382 15.5484 112.891 16.7729 113.174 18.8563H118.518C118.192 14.1181 114.645 11.1367 109.426 11.1367C103.799 11.1367 100.046 14.2814 100.046 21.4721C100.046 28.6629 103.799 32.2974 109.263 32.2974C114.113 32.2974 117.908 29.1527 118.479 24.4961H113.136C112.93 26.6611 111.3 27.8466 109.22 27.8466V27.8431Z" fill="#572EEE"/>
<path d="M5.11659 11.4307H0V32.2754H14.9494V27.6862H5.11659V11.4307Z" fill="#572EEE"/>
<path d="M99.4438 5.57393L96.6517 6.60676C96.5879 6.63161 96.5383 6.6813 96.5135 6.74518L95.4824 9.54199C95.408 9.7443 95.1209 9.7443 95.0465 9.54199L94.0154 6.74518C93.9906 6.6813 93.941 6.63161 93.8772 6.60676L91.0851 5.57393C90.8831 5.4994 90.8831 5.21191 91.0851 5.13737L93.8772 4.10454C93.941 4.0797 93.9906 4.03001 94.0154 3.96612L95.0465 1.16931C95.1209 0.967001 95.408 0.967001 95.4824 1.16931L96.5135 3.96612C96.5383 4.03001 96.5879 4.0797 96.6517 4.10454L99.4438 5.13737C99.6458 5.21191 99.6458 5.4994 99.4438 5.57393Z" fill="#FC921C"/>
<path d="M31.518 37.2939C31.1849 37.2939 30.9085 37.0313 30.8943 36.6977L30.5364 29.0668C30.5294 28.8964 30.5896 28.7296 30.7065 28.6054C30.8235 28.4811 30.99 28.4102 31.1565 28.4102C31.2557 28.4102 31.355 28.435 31.4435 28.4811L38.2184 31.9878C38.4665 32.1156 38.5976 32.3853 38.5444 32.6586C38.4913 32.9319 38.2716 33.1342 37.9952 33.1626L34.055 33.5601L32.053 36.9816C31.9396 37.1733 31.7376 37.2904 31.518 37.2904V37.2939Z" fill="white"/>
<path d="M31.0325 29.0418L31.3903 36.6726C31.3974 36.8004 31.564 36.8395 31.6278 36.733L33.7254 33.1482C33.7467 33.1127 33.7821 33.0915 33.8211 33.0844L37.9491 32.6691C38.0766 32.6549 38.1085 32.4881 37.9951 32.4277L31.2203 28.9211C31.1317 28.8749 31.0289 28.9424 31.036 29.0418H31.0325Z" fill="#A2E241"/>
<path d="M3.43687 46.7626C2.91378 46.7626 2.443 46.6729 2.02453 46.4936C1.60606 46.3068 1.27726 46.0452 1.03813 45.709C0.799007 45.3727 0.679443 44.9804 0.679443 44.532H2.04695C2.07684 44.8683 2.20761 45.1448 2.43926 45.3615C2.67839 45.5782 3.01093 45.6865 3.43687 45.6865C3.87776 45.6865 4.2215 45.5819 4.4681 45.3727C4.7147 45.156 4.838 44.8795 4.838 44.5432C4.838 44.2817 4.75954 44.0687 4.60261 43.9043C4.45316 43.7399 4.2626 43.6129 4.03095 43.5232C3.80677 43.4335 3.49291 43.3364 3.08939 43.2318C2.58125 43.0972 2.16651 42.9627 1.84518 42.8282C1.53133 42.6862 1.26231 42.4695 1.03813 42.1781C0.813952 41.8867 0.701861 41.4981 0.701861 41.0124C0.701861 40.564 0.813952 40.1717 1.03813 39.8354C1.26231 39.4991 1.57617 39.2413 1.97969 39.062C2.38322 38.8826 2.85026 38.793 3.38082 38.793C4.13557 38.793 4.75206 38.9835 5.23032 39.3646C5.71604 39.7383 5.98506 40.2539 6.03737 40.9115H4.62503C4.60261 40.6275 4.4681 40.3847 4.2215 40.1829C3.9749 39.9811 3.64984 39.8802 3.24632 39.8802C2.88015 39.8802 2.58125 39.9737 2.34959 40.1605C2.11794 40.3473 2.00211 40.6163 2.00211 40.9675C2.00211 41.2067 2.0731 41.4047 2.21508 41.5616C2.36454 41.7111 2.55135 41.8306 2.77554 41.9203C2.99972 42.01 3.3061 42.1071 3.69468 42.2117C4.21029 42.3537 4.62876 42.4957 4.95009 42.6377C5.27889 42.7797 5.55538 43.0001 5.77956 43.299C6.01121 43.5904 6.12704 43.9828 6.12704 44.476C6.12704 44.872 6.01869 45.2456 5.80198 45.5969C5.59274 45.9481 5.28263 46.232 4.87163 46.4487C4.4681 46.658 3.98985 46.7626 3.43687 46.7626Z" fill="#6B7280"/>
<path d="M16.008 40.4071C16.4937 40.4071 16.9271 40.508 17.3082 40.7097C17.6968 40.9115 17.9995 41.2104 18.2162 41.6064C18.4404 42.0025 18.5524 42.4807 18.5524 43.0412V46.6841H17.2858V43.2318C17.2858 42.6788 17.1476 42.2566 16.8711 41.9651C16.5946 41.6662 16.2172 41.5168 15.739 41.5168C15.2607 41.5168 14.8796 41.6662 14.5957 41.9651C14.3192 42.2566 14.1809 42.6788 14.1809 43.2318V46.6841H12.9143V43.2318C12.9143 42.6788 12.776 42.2566 12.4996 41.9651C12.2231 41.6662 11.8457 41.5168 11.3674 41.5168C10.8892 41.5168 10.5081 41.6662 10.2241 41.9651C9.94763 42.2566 9.80939 42.6788 9.80939 43.2318V46.6841H8.53156V40.508H9.80939V41.2141C10.0186 40.9601 10.2839 40.762 10.6052 40.62C10.9266 40.4781 11.2703 40.4071 11.6365 40.4071C12.1297 40.4071 12.5705 40.5117 12.9591 40.7209C13.3477 40.9302 13.6466 41.2328 13.8559 41.6289C14.0427 41.2552 14.3341 40.9601 14.7302 40.7433C15.1262 40.5192 15.5522 40.4071 16.008 40.4071Z" fill="#6B7280"/>
<path d="M20.6492 43.568C20.6492 42.9478 20.7763 42.3985 21.0303 41.9203C21.2919 41.442 21.6431 41.0721 22.084 40.8106C22.5324 40.5416 23.0256 40.4071 23.5636 40.4071C24.0493 40.4071 24.4715 40.5042 24.8302 40.6985C25.1964 40.8853 25.4878 41.1207 25.7045 41.4047V40.508H26.9936V46.6841H25.7045V45.765C25.4878 46.0564 25.1926 46.2993 24.819 46.4936C24.4454 46.6879 24.0194 46.785 23.5412 46.785C23.0106 46.785 22.5249 46.6505 22.084 46.3815C21.6431 46.105 21.2919 45.7239 21.0303 45.2382C20.7763 44.745 20.6492 44.1883 20.6492 43.568ZM25.7045 43.5904C25.7045 43.1645 25.6148 42.7946 25.4355 42.4807C25.2636 42.1669 25.0357 41.9278 24.7517 41.7634C24.4678 41.599 24.1614 41.5168 23.8326 41.5168C23.5038 41.5168 23.1974 41.599 22.9135 41.7634C22.6295 41.9203 22.3978 42.1557 22.2185 42.4695C22.0466 42.7759 21.9607 43.1421 21.9607 43.568C21.9607 43.994 22.0466 44.3676 22.2185 44.6889C22.3978 45.0103 22.6295 45.2569 22.9135 45.4287C23.2049 45.5931 23.5113 45.6753 23.8326 45.6753C24.1614 45.6753 24.4678 45.5931 24.7517 45.4287C25.0357 45.2643 25.2636 45.0252 25.4355 44.7113C25.6148 44.39 25.7045 44.0164 25.7045 43.5904Z" fill="#6B7280"/>
<path d="M30.8465 41.4047C31.0333 41.0908 31.2799 40.848 31.5863 40.6761C31.9001 40.4967 32.27 40.4071 32.696 40.4071V41.7297H32.3709C31.8703 41.7297 31.4891 41.8568 31.2276 42.1108C30.9735 42.3649 30.8465 42.8058 30.8465 43.4335V46.6841H29.5687V40.508H30.8465V41.4047Z" fill="#6B7280"/>
<path d="M36.2581 41.5504V44.9692C36.2581 45.2008 36.3104 45.3689 36.415 45.4736C36.5271 45.5707 36.7139 45.6193 36.9755 45.6193H37.7601V46.6841H36.7513C36.1759 46.6841 35.735 46.5496 35.4286 46.2806C35.1222 46.0116 34.9691 45.5744 34.9691 44.9692V41.5504H34.2405V40.508H34.9691V38.9723H36.2581V40.508H37.7601V41.5504H36.2581Z" fill="#6B7280"/>
<path d="M49.864 38.8939V46.6841H48.5862V43.2766H44.9209V46.6841H43.643V38.8939H44.9209V42.2341H48.5862V38.8939H49.864Z" fill="#6B7280"/>
<path d="M55.122 46.785C54.5391 46.785 54.0123 46.6542 53.5415 46.3927C53.0707 46.1237 52.7008 45.7501 52.4318 45.2718C52.1628 44.7861 52.0283 44.2256 52.0283 43.5904C52.0283 42.9627 52.1665 42.406 52.443 41.9203C52.7195 41.4346 53.0969 41.0609 53.5751 40.7994C54.0534 40.5378 54.5877 40.4071 55.178 40.4071C55.7684 40.4071 56.3026 40.5378 56.7809 40.7994C57.2592 41.0609 57.6365 41.4346 57.913 41.9203C58.1895 42.406 58.3277 42.9627 58.3277 43.5904C58.3277 44.2181 58.1858 44.7749 57.9018 45.2606C57.6178 45.7463 57.2293 46.1237 56.7361 46.3927C56.2503 46.6542 55.7123 46.785 55.122 46.785ZM55.122 45.6753C55.4508 45.6753 55.7571 45.5969 56.0411 45.4399C56.3325 45.283 56.5679 45.0476 56.7473 44.7338C56.9266 44.4199 57.0163 44.0388 57.0163 43.5904C57.0163 43.1421 56.9304 42.7647 56.7585 42.4583C56.5866 42.1445 56.3587 41.9091 56.0747 41.7522C55.7908 41.5952 55.4844 41.5168 55.1556 41.5168C54.8268 41.5168 54.5204 41.5952 54.2364 41.7522C53.96 41.9091 53.7395 42.1445 53.5751 42.4583C53.4107 42.7647 53.3285 43.1421 53.3285 43.5904C53.3285 44.2555 53.4967 44.7711 53.8329 45.1373C54.1767 45.496 54.6063 45.6753 55.122 45.6753Z" fill="#6B7280"/>
<path d="M67.9641 40.4071C68.4498 40.4071 68.8833 40.508 69.2644 40.7097C69.6529 40.9115 69.9556 41.2104 70.1723 41.6064C70.3965 42.0025 70.5086 42.4807 70.5086 43.0412V46.6841H69.2419V43.2318C69.2419 42.6788 69.1037 42.2566 68.8272 41.9651C68.5507 41.6662 68.1734 41.5168 67.6951 41.5168C67.2168 41.5168 66.8357 41.6662 66.5518 41.9651C66.2753 42.2566 66.137 42.6788 66.137 43.2318V46.6841H64.8704V43.2318C64.8704 42.6788 64.7322 42.2566 64.4557 41.9651C64.1792 41.6662 63.8018 41.5168 63.3236 41.5168C62.8453 41.5168 62.4642 41.6662 62.1802 41.9651C61.9038 42.2566 61.7655 42.6788 61.7655 43.2318V46.6841H60.4877V40.508H61.7655V41.2141C61.9747 40.9601 62.24 40.762 62.5614 40.62C62.8827 40.4781 63.2264 40.4071 63.5926 40.4071C64.0858 40.4071 64.5267 40.5117 64.9153 40.7209C65.3038 40.9302 65.6027 41.2328 65.812 41.6289C65.9988 41.2552 66.2902 40.9601 66.6863 40.7433C67.0823 40.5192 67.5083 40.4071 67.9641 40.4071Z" fill="#6B7280"/>
<path d="M78.6919 43.4447C78.6919 43.6764 78.6769 43.8856 78.647 44.0724H73.928C73.9654 44.5656 74.1485 44.9617 74.4773 45.2606C74.8061 45.5595 75.2096 45.709 75.6879 45.709C76.3753 45.709 76.8611 45.4213 77.145 44.8459H78.5237C78.3369 45.4138 77.9969 45.8808 77.5037 46.247C77.018 46.6057 76.4127 46.785 75.6879 46.785C75.0975 46.785 74.5669 46.6542 74.0962 46.3927C73.6329 46.1237 73.2667 45.7501 72.9977 45.2718C72.7361 44.7861 72.6054 44.2256 72.6054 43.5904C72.6054 42.9553 72.7324 42.3985 72.9865 41.9203C73.248 41.4346 73.6104 41.0609 74.0737 40.7994C74.5445 40.5378 75.0826 40.4071 75.6879 40.4071C76.2707 40.4071 76.7901 40.5341 77.2459 40.7882C77.7017 41.0423 78.0567 41.4009 78.3108 41.8642C78.5648 42.3201 78.6919 42.8469 78.6919 43.4447ZM77.358 43.0412C77.3505 42.5704 77.1824 42.193 76.8536 41.9091C76.5248 41.6251 76.1175 41.4831 75.6318 41.4831C75.1909 41.4831 74.8135 41.6251 74.4997 41.9091C74.1858 42.1856 73.999 42.5629 73.9392 43.0412H77.358Z" fill="#6B7280"/>
<path d="M89.6874 38.8939V39.9363H87.6137V46.6841H86.3359V39.9363H84.251V38.8939H89.6874Z" fill="#6B7280"/>
<path d="M97.4716 40.508V46.6841H96.1937V45.9556C95.992 46.2096 95.7267 46.4114 95.3979 46.5608C95.0766 46.7028 94.7328 46.7738 94.3667 46.7738C93.881 46.7738 93.4438 46.6729 93.0552 46.4712C92.6741 46.2694 92.3715 45.9705 92.1473 45.5744C91.9306 45.1784 91.8222 44.7001 91.8222 44.1397V40.508H93.0888V43.9491C93.0888 44.5021 93.2271 44.9281 93.5036 45.227C93.7801 45.5184 94.1574 45.6641 94.6357 45.6641C95.1139 45.6641 95.4913 45.5184 95.7678 45.227C96.0518 44.9281 96.1937 44.5021 96.1937 43.9491V40.508H97.4716Z" fill="#6B7280"/>
<path d="M101.545 41.5504V44.9692C101.545 45.2008 101.597 45.3689 101.702 45.4736C101.814 45.5707 102.001 45.6193 102.262 45.6193H103.047V46.6841H102.038C101.463 46.6841 101.022 46.5496 100.716 46.2806C100.409 46.0116 100.256 45.5744 100.256 44.9692V41.5504H99.5275V40.508H100.256V38.9723H101.545V40.508H103.047V41.5504H101.545Z" fill="#6B7280"/>
<path d="M107.801 46.785C107.218 46.785 106.691 46.6542 106.22 46.3927C105.749 46.1237 105.379 45.7501 105.11 45.2718C104.841 44.7861 104.707 44.2256 104.707 43.5904C104.707 42.9627 104.845 42.406 105.122 41.9203C105.398 41.4346 105.775 41.0609 106.254 40.7994C106.732 40.5378 107.266 40.4071 107.857 40.4071C108.447 40.4071 108.981 40.5378 109.459 40.7994C109.938 41.0609 110.315 41.4346 110.592 41.9203C110.868 42.406 111.006 42.9627 111.006 43.5904C111.006 44.2181 110.864 44.7749 110.58 45.2606C110.296 45.7463 109.908 46.1237 109.415 46.3927C108.929 46.6542 108.391 46.785 107.801 46.785ZM107.801 45.6753C108.129 45.6753 108.436 45.5969 108.72 45.4399C109.011 45.283 109.247 45.0476 109.426 44.7338C109.605 44.4199 109.695 44.0388 109.695 43.5904C109.695 43.1421 109.609 42.7647 109.437 42.4583C109.265 42.1445 109.037 41.9091 108.753 41.7522C108.469 41.5952 108.163 41.5168 107.834 41.5168C107.505 41.5168 107.199 41.5952 106.915 41.7522C106.639 41.9091 106.418 42.1445 106.254 42.4583C106.089 42.7647 106.007 43.1421 106.007 43.5904C106.007 44.2555 106.175 44.7711 106.512 45.1373C106.855 45.496 107.285 45.6753 107.801 45.6753Z" fill="#6B7280"/>
<path d="M114.444 41.4047C114.631 41.0908 114.878 40.848 115.184 40.6761C115.498 40.4967 115.868 40.4071 116.294 40.4071V41.7297H115.969C115.468 41.7297 115.087 41.8568 114.825 42.1108C114.571 42.3649 114.444 42.8058 114.444 43.4335V46.6841H113.166V40.508H114.444V41.4047Z" fill="#6B7280"/>
</svg>
