<svg width="45" height="53" viewBox="0 0 45 53" fill="none" xmlns="http://www.w3.org/2000/svg">
<path d="M36.8789 27.7383C36.8555 23.4375 38.8008 20.1914 42.7383 17.8008C40.5352 14.6484 37.207 12.9141 32.8125 12.5742C28.6523 12.2461 24.1055 15 22.4414 15C20.6836 15 16.6523 12.6914 13.4883 12.6914C6.94922 12.7969 0 17.9062 0 28.3008C0 31.3711 0.5625 34.543 1.6875 37.8164C3.1875 42.1172 8.60156 52.6641 14.25 52.4883C17.2031 52.418 19.2891 50.3906 23.1328 50.3906C26.8594 50.3906 28.793 52.4883 32.0859 52.4883C37.7812 52.4062 42.6797 42.8203 44.1094 38.5078C36.4688 34.9102 36.8789 27.9609 36.8789 27.7383ZM30.2461 8.49609C33.4453 4.69922 33.1523 1.24219 33.0586 0C30.2344 0.164062 26.9648 1.92188 25.1016 4.08984C23.0508 6.41016 21.8438 9.28125 22.1016 12.5156C25.1602 12.75 27.9492 11.1797 30.2461 8.49609Z" fill="#111827"/>
</svg>
