<svg width="75" height="62" viewBox="0 0 75 62" fill="none" xmlns="http://www.w3.org/2000/svg">
<path d="M75 61.5H0V0H75V61.5Z" stroke="#E5E7EB"/>
<g clip-path="url(#clip0_1584_3951)">
<path d="M21.142 23.7902C21.0577 26.4445 22.3842 27.6199 22.417 28.3664C22.4014 28.5183 22.3496 28.6643 22.2661 28.7921C22.1825 28.92 22.0695 29.0259 21.9366 29.1011L20.4366 30.1511C20.2424 30.2872 20.0136 30.3653 19.7768 30.3761C19.7264 30.3738 18.817 30.5906 17.3768 27.375C16.4981 28.4718 15.3801 29.353 14.1084 29.9512C12.8366 30.5494 11.4449 30.8487 10.0397 30.8261C8.13188 30.9304 2.96157 29.7433 3.22758 24.239C3.04125 19.7531 7.21899 16.9664 11.5397 17.2019C12.3717 17.2043 14.0709 17.2453 17.0463 17.9367V16.1062C17.3616 13.0054 15.3237 10.5996 11.7952 10.9605C11.5139 10.9617 9.52172 10.9019 6.42328 12.1453C5.56078 12.5414 5.45063 12.4758 5.16352 12.4758C4.29516 12.4758 4.65258 9.95856 4.81899 9.63981C5.42953 8.88981 9.02133 7.48942 12.5463 7.50934C14.9033 7.3009 17.2476 8.02831 19.0725 9.53434C19.8143 10.3641 20.3803 11.3357 20.7362 12.3903C21.0921 13.4449 21.2306 14.5607 21.1432 15.6703L21.142 23.7902ZM11.0147 27.5859C14.8151 27.5308 16.4241 25.2457 16.7909 24.0152C17.0791 22.8375 17.0311 22.0922 17.0311 20.8043C15.8979 20.5324 14.2666 20.2359 12.3952 20.2336C10.6198 20.1 7.37719 20.8933 7.50375 24.014C7.35844 25.9816 8.80688 27.6937 11.0147 27.5859ZM31.0444 30.2871C30.1233 30.3715 29.6944 29.7175 29.5584 29.0718L23.7225 9.77692C23.6088 9.45114 23.5338 9.11481 23.4975 8.77145C23.476 8.62989 23.5115 8.48558 23.5963 8.37022C23.6812 8.25486 23.8083 8.17789 23.9498 8.15622C23.978 8.15153 23.7002 8.15622 26.5573 8.15622C27.5862 8.05309 27.9213 8.86286 28.028 9.37145L32.2139 25.875L36.0998 9.37145C36.162 8.99411 36.4444 8.07419 37.5998 8.17145H39.6108C39.8651 8.15036 40.9127 8.11286 41.0967 9.38669L45.0131 26.1011L49.3338 9.38669C49.3901 9.13122 49.6526 8.05427 50.8198 8.17145H53.1307C53.2303 8.15622 53.8514 8.07653 53.7459 9.17692C53.6955 9.39372 54.1455 7.9277 47.5643 29.0871C47.4295 29.7328 46.9995 30.3867 46.0784 30.3023H43.8881C42.6061 30.4371 42.4221 29.1703 42.4022 29.0425L38.5163 12.9726L34.6748 29.0261C34.6561 29.1539 34.4721 30.4207 33.1889 30.2859H31.0444V30.2871ZM63.0928 30.9468C62.4038 30.948 59.1178 30.9117 56.3709 29.5066C56.0973 29.3908 55.8643 29.1963 55.7013 28.9478C55.5384 28.6993 55.4529 28.408 55.4557 28.1109V26.8511C55.4557 25.8609 56.1823 26.0425 56.4905 26.1609C57.667 26.6367 58.4217 26.9976 59.8666 27.2859C64.1616 28.1683 66.0506 27.0164 66.5135 26.7609C68.0545 25.8457 68.1764 23.7515 67.1288 22.6652C65.9006 21.6351 65.3147 21.5965 60.9026 20.2043C60.3588 20.0531 55.7815 18.6093 55.7709 14.0683C55.6995 10.759 58.7065 7.48474 63.9178 7.51169C65.4026 7.51052 69.3588 7.99567 70.4299 9.34216C70.5881 9.58708 70.6666 9.87536 70.6549 10.1672V11.3519C70.6549 11.8722 70.4651 12.1324 70.0842 12.1324C69.1807 12.0316 67.5776 10.8234 64.3233 10.8726C63.5159 10.8304 59.6487 10.9793 59.8221 13.7988C59.7717 16.0207 62.9405 16.8539 63.3026 16.95C67.5752 18.2355 69.0038 18.4488 70.6995 20.4164C72.708 23.0238 71.6252 26.0765 71.2092 26.9132C68.9733 31.3066 63.1913 30.9492 63.0928 30.9468ZM67.8038 43.2351C59.5971 49.2961 47.6838 52.5222 37.512 52.5222C23.787 52.6127 10.5246 47.566 0.331878 38.3742C-0.433357 37.684 0.241643 36.7382 1.17211 37.2644C12.4789 43.7322 25.2805 47.1306 38.3065 47.1222C48.0339 47.0701 57.6552 45.0967 66.6178 41.3156C67.9983 40.7297 69.169 42.2297 67.8038 43.2351ZM71.2245 39.334C70.1745 37.984 64.2776 38.7035 61.6373 39.0187C60.8416 39.109 60.7069 38.4187 61.4276 37.909C66.1233 34.6078 73.8354 35.5535 74.7213 36.6632C75.6061 37.773 74.4811 45.5004 70.0854 49.1918C69.4104 49.7625 68.7647 49.4613 69.0647 48.7113C70.0537 46.2211 72.2745 40.6851 71.2245 39.334Z" fill="#111827"/>
</g>
<defs>
<clipPath id="clip0_1584_3951">
<path d="M0 0H75V60H0V0Z" fill="white"/>
</clipPath>
</defs>
</svg>
