<svg width="58" height="62" viewBox="0 0 58 62" fill="none" xmlns="http://www.w3.org/2000/svg">
<path d="M57.1875 61.5H0V0H57.1875V61.5Z" stroke="#E5E7EB"/>
<g clip-path="url(#clip0_1584_3939)">
<path d="M57.1875 30.6797C57.1875 47.2617 45.832 59.0625 29.0625 59.0625C12.9844 59.0625 0 46.0781 0 30C0 13.9219 12.9844 0.9375 29.0625 0.9375C36.8906 0.9375 43.4766 3.80859 48.5508 8.54297L40.6406 16.1484C30.293 6.16406 11.0508 13.6641 11.0508 30C11.0508 40.1367 19.1484 48.3516 29.0625 48.3516C40.5703 48.3516 44.8828 40.1016 45.5625 35.8242H29.0625V25.8281H56.7305C57 27.3164 57.1875 28.7461 57.1875 30.6797Z" fill="#111827"/>
</g>
<defs>
<clipPath id="clip0_1584_3939">
<path d="M0 0H57.1875V60H0V0Z" fill="white"/>
</clipPath>
</defs>
</svg>
