<svg width="75" height="62" viewBox="0 0 75 62" fill="none" xmlns="http://www.w3.org/2000/svg">
<path d="M75 61.5H0V0H75V61.5Z" stroke="#E5E7EB"/>
<g clip-path="url(#clip0_1584_3963)">
<path d="M75 37.2539C75 47.9531 70.3828 54.6562 62.0742 54.6562C54.7383 54.6562 50.8477 50.6016 43.6875 38.6484L40.0078 32.4844C39.0352 31.0195 38.3086 29.6484 37.5234 28.3828C35.168 32.3437 32.0039 38.1094 32.0039 38.1094C24.1523 51.7734 19.7461 54.6562 13.6172 54.6562C5.08828 54.6562 0 47.9414 0 37.5586C0 20.8008 9.34922 4.96875 21.5508 4.96875C27.4336 4.96875 32.543 7.86094 38.5195 15.457C42.8672 9.58594 47.6719 4.96875 53.8242 4.96875C65.4375 4.96875 75 19.6992 75 37.2539ZM33.6797 22.5234C28.6523 15.2461 25.3711 13.0898 21.4453 13.0898C14.1914 13.0898 8.11172 25.5234 8.11172 37.6992C8.11172 43.3828 10.2773 46.5703 13.9219 46.5703C17.4609 46.5703 19.6641 44.3438 26.0156 34.4063C26.0156 34.4063 28.9102 29.8242 33.6797 22.5234ZM62.25 46.5703C66.0234 46.5703 67.7461 43.3477 67.7461 37.793C67.7461 23.2383 61.3828 11.3766 53.3086 11.3766C49.418 11.3766 46.1484 14.4141 42.1875 20.5195C43.2891 22.1367 44.4258 23.918 45.6211 25.8398L50.0156 33.1523C56.8945 44.1797 58.6289 46.5703 62.25 46.5703Z" fill="#111827"/>
</g>
<defs>
<clipPath id="clip0_1584_3963">
<path d="M0 0H75V60H0V0Z" fill="white"/>
</clipPath>
</defs>
</svg>
